<svg xmlns="http://www.w3.org/2000/svg" width="1160" height="460" style="font-family:'SF Mono',monospace;background:#0d1117">
<rect width="1160" height="460" fill="#0d1117"/>
<defs>
<marker id="arr-arr" markerWidth="8" markerHeight="8" refX="6" refY="3" orient="auto"><path d="M0,0 L0,6 L8,3 z" fill="#58a6ff"/></marker>
<marker id="arr-green" markerWidth="8" markerHeight="8" refX="6" refY="3" orient="auto"><path d="M0,0 L0,6 L8,3 z" fill="#3fb950"/></marker>
<marker id="arr-orange" markerWidth="8" markerHeight="8" refX="6" refY="3" orient="auto"><path d="M0,0 L0,6 L8,3 z" fill="#d29922"/></marker>
<marker id="arr-purple" markerWidth="8" markerHeight="8" refX="6" refY="3" orient="auto"><path d="M0,0 L0,6 L8,3 z" fill="#bc8cff"/></marker>
<marker id="arr-sub" markerWidth="8" markerHeight="8" refX="6" refY="3" orient="auto"><path d="M0,0 L0,6 L8,3 z" fill="#8b949e"/></marker>
</defs>
<rect x="40" y="170" width="150" height="70" rx="8" fill="#21262d" stroke="#30363d" stroke-width="1.5"/>
<text x="115" y="209" text-anchor="middle" fill="#e6edf3" font-size="13" font-weight="600">Browser</text>
<rect x="260" y="170" width="170" height="70" rx="8" fill="#21262d" stroke="#3fb950" stroke-width="1.5"/>
<text x="345" y="189" text-anchor="middle" fill="#e6edf3" font-size="13" font-weight="600">Next.js 15</text>
<text x="345" y="206" text-anchor="middle" fill="#8b949e" font-size="11">Vercel</text>
<text x="345" y="220" text-anchor="middle" fill="#8b949e" font-size="11">BFF</text>
<text x="345" y="234" text-anchor="middle" fill="#8b949e" font-size="11">next-auth v5</text>
<rect x="640" y="170" width="215" height="70" rx="8" fill="#21262d" stroke="#bc8cff" stroke-width="1.5"/>
<text x="747" y="185" text-anchor="middle" fill="#e6edf3" font-size="13" font-weight="600">Spring Boot 3</text>
<text x="747" y="202" text-anchor="middle" fill="#8b949e" font-size="11">HR</text>
<text x="747" y="216" text-anchor="middle" fill="#8b949e" font-size="11">Finance</text>
<text x="747" y="230" text-anchor="middle" fill="#8b949e" font-size="11">Inventory</text>
<text x="747" y="244" text-anchor="middle" fill="#8b949e" font-size="11">CRM</text>
<rect x="390" y="330" width="180" height="70" rx="8" fill="#21262d" stroke="#d29922" stroke-width="1.5"/>
<text x="480" y="349" text-anchor="middle" fill="#e6edf3" font-size="13" font-weight="600">Keycloak</text>
<text x="480" y="366" text-anchor="middle" fill="#8b949e" font-size="11">OIDC</text>
<text x="480" y="380" text-anchor="middle" fill="#8b949e" font-size="11">JWT</text>
<text x="480" y="394" text-anchor="middle" fill="#8b949e" font-size="11">tenant_id claim</text>
<rect x="870" y="330" width="170" height="70" rx="8" fill="#21262d" stroke="#3fb950" stroke-width="1.5"/>
<text x="955" y="349" text-anchor="middle" fill="#e6edf3" font-size="13" font-weight="600">PostgreSQL 16</text>
<text x="955" y="366" text-anchor="middle" fill="#8b949e" font-size="11">Flyway</text>
<text x="955" y="380" text-anchor="middle" fill="#8b949e" font-size="11">tenant_id</text>
<text x="955" y="394" text-anchor="middle" fill="#8b949e" font-size="11">soft-delete</text>
<line x1="190" y1="205" x2="260" y2="205" stroke="#58a6ff" stroke-width="1.5" marker-end="url(#arr-arr)"/>
<text x="225" y="197" text-anchor="middle" fill="#58a6ff" font-size="10">HTTPS</text>
<line x1="430" y1="205" x2="640" y2="205" stroke="#58a6ff" stroke-width="1.5" marker-end="url(#arr-arr)"/>
<text x="535" y="197" text-anchor="middle" fill="#58a6ff" font-size="10">REST + JWT Bearer</text>
<line x1="345" y1="240" x2="480" y2="330" stroke="#d29922" stroke-width="1.5" marker-end="url(#arr-orange)"/>
<text x="412" y="285" text-anchor="middle" fill="#d29922" font-size="10">OAuth2 로그인</text>
<path d="M747,240 Q658,320 570,365" stroke="#d29922" stroke-width="1.5" fill="none" stroke-dasharray="6,4" marker-end="url(#arr-orange)"/>
<text x="658" y="301" text-anchor="middle" fill="#d29922" font-size="10">JWKS 검증</text>
<line x1="747" y1="240" x2="955" y2="330" stroke="#58a6ff" stroke-width="1.5" marker-end="url(#arr-arr)"/>
<text x="851" y="285" text-anchor="middle" fill="#58a6ff" font-size="10">JPA / Flyway</text>
<text x="40" y="391" fill="#8b949e" font-size="11" font-weight="600">범례</text>
<line x1="40" y1="410" x2="60" y2="410" stroke="#58a6ff" stroke-width="1.5" marker-end="url(#arr-arr)"/><text x="66" y="414" fill="#8b949e" font-size="11">HTTPS / REST</text>
<line x1="190" y1="410" x2="210" y2="410" stroke="#d29922" stroke-width="1.5" marker-end="url(#arr-orange)"/><text x="216" y="414" fill="#8b949e" font-size="11">OIDC / JWT 흐름</text>
<line x1="350" y1="410" x2="370" y2="410" stroke="#3fb950" stroke-width="1.5" marker-end="url(#arr-green)"/><text x="376" y="414" fill="#8b949e" font-size="11">Next.js BFF · DB</text>
<line x1="510" y1="410" x2="530" y2="410" stroke="#bc8cff" stroke-width="1.5" marker-end="url(#arr-purple)"/><text x="536" y="414" fill="#8b949e" font-size="11">Spring Boot 모듈</text>
</svg>
